<mxfile host="65bd71144e">
    <diagram id="d_4Vuu41JbD3Yynaa0p2" name="Page-1">
        <mxGraphModel dx="1129" dy="519" grid="1" gridSize="10" guides="1" tooltips="1" connect="1" arrows="1" fold="1" page="1" pageScale="1" pageWidth="850" pageHeight="1100" background="none" math="0" shadow="0">
            <root>
                <mxCell id="0"/>
                <mxCell id="1" parent="0"/>
                <mxCell id="9" value="" style="edgeStyle=none;html=1;shadow=0;sketch=0;fontSize=12;labelBorderColor=none;align=center;fontStyle=0;fontFamily=Comic Sans MS;" edge="1" parent="1" source="7" target="8">
                    <mxGeometry relative="1" as="geometry"/>
                </mxCell>
                <mxCell id="7" value="int Rec(int start&amp;lt; finish)" style="ellipse;whiteSpace=wrap;html=1;rounded=1;fontSize=12;labelBackgroundColor=#ffffff;endArrow=classic;shadow=0;sketch=0;labelBorderColor=none;align=center;fontStyle=0;fontFamily=Comic Sans MS;" vertex="1" parent="1">
                    <mxGeometry x="350" y="70" width="150" height="60" as="geometry"/>
                </mxCell>
                <mxCell id="11" value="yes" style="edgeStyle=none;html=1;shadow=0;sketch=0;fontSize=12;labelBorderColor=none;align=center;fontStyle=0;fontFamily=Comic Sans MS;" edge="1" parent="1" source="8" target="10">
                    <mxGeometry relative="1" as="geometry"/>
                </mxCell>
                <mxCell id="27" style="edgeStyle=none;sketch=0;html=1;entryX=0;entryY=0.5;entryDx=0;entryDy=0;shadow=0;fontFamily=Comic Sans MS;fontSize=12;align=center;" edge="1" parent="1" source="8" target="21">
                    <mxGeometry relative="1" as="geometry">
                        <Array as="points">
                            <mxPoint x="250" y="230"/>
                            <mxPoint x="250" y="955"/>
                        </Array>
                    </mxGeometry>
                </mxCell>
                <mxCell id="28" value="no" style="edgeLabel;html=1;align=center;verticalAlign=middle;resizable=0;points=[];fontSize=12;fontFamily=Comic Sans MS;" vertex="1" connectable="0" parent="27">
                    <mxGeometry x="-0.5948" y="-3" relative="1" as="geometry">
                        <mxPoint as="offset"/>
                    </mxGeometry>
                </mxCell>
                <mxCell id="8" value="if(start &amp;gt; finish)" style="rhombus;whiteSpace=wrap;html=1;rounded=1;fontSize=12;labelBackgroundColor=#ffffff;endArrow=classic;shadow=0;sketch=0;labelBorderColor=none;align=center;fontStyle=0;fontFamily=Comic Sans MS;" vertex="1" parent="1">
                    <mxGeometry x="368" y="190" width="115" height="80" as="geometry"/>
                </mxCell>
                <mxCell id="13" value="" style="edgeStyle=none;sketch=0;html=1;shadow=0;fontFamily=Comic Sans MS;fontSize=12;align=center;" edge="1" parent="1" source="10" target="12">
                    <mxGeometry relative="1" as="geometry"/>
                </mxCell>
                <mxCell id="15" value="yes" style="edgeLabel;html=1;align=center;verticalAlign=middle;resizable=0;points=[];fontSize=12;fontFamily=Comic Sans MS;" vertex="1" connectable="0" parent="13">
                    <mxGeometry x="-0.2667" y="1" relative="1" as="geometry">
                        <mxPoint as="offset"/>
                    </mxGeometry>
                </mxCell>
                <mxCell id="20" style="edgeStyle=none;sketch=0;html=1;entryX=0.003;entryY=0.398;entryDx=0;entryDy=0;entryPerimeter=0;shadow=0;fontFamily=Comic Sans MS;fontSize=12;align=center;" edge="1" parent="1" source="10" target="17">
                    <mxGeometry relative="1" as="geometry">
                        <Array as="points">
                            <mxPoint x="270" y="380"/>
                            <mxPoint x="270" y="650"/>
                        </Array>
                    </mxGeometry>
                </mxCell>
                <mxCell id="26" value="no" style="edgeLabel;html=1;align=center;verticalAlign=middle;resizable=0;points=[];fontSize=12;fontFamily=Comic Sans MS;" vertex="1" connectable="0" parent="20">
                    <mxGeometry x="0.0183" y="3" relative="1" as="geometry">
                        <mxPoint as="offset"/>
                    </mxGeometry>
                </mxCell>
                <mxCell id="10" value="if( start == finish)" style="rhombus;whiteSpace=wrap;html=1;rounded=1;fontSize=12;labelBackgroundColor=#ffffff;endArrow=classic;shadow=0;sketch=0;labelBorderColor=none;align=center;fontStyle=0;fontFamily=Comic Sans MS;" vertex="1" parent="1">
                    <mxGeometry x="358.25" y="340" width="134.5" height="80" as="geometry"/>
                </mxCell>
                <mxCell id="14" style="edgeStyle=none;sketch=0;html=1;entryX=1;entryY=0.5;entryDx=0;entryDy=0;shadow=0;fontFamily=Comic Sans MS;fontSize=12;align=center;" edge="1" parent="1" source="12" target="10">
                    <mxGeometry relative="1" as="geometry">
                        <Array as="points">
                            <mxPoint x="540" y="540"/>
                            <mxPoint x="540" y="380"/>
                        </Array>
                    </mxGeometry>
                </mxCell>
                <mxCell id="12" value="return 0;" style="whiteSpace=wrap;html=1;rounded=1;shadow=0;fontFamily=Comic Sans MS;fontStyle=0;labelBackgroundColor=#ffffff;endArrow=classic;sketch=0;" vertex="1" parent="1">
                    <mxGeometry x="365.5" y="510" width="120" height="60" as="geometry"/>
                </mxCell>
                <mxCell id="19" value="" style="edgeStyle=none;sketch=0;html=1;shadow=0;fontFamily=Comic Sans MS;fontSize=12;align=center;" edge="1" parent="1" source="17" target="18">
                    <mxGeometry relative="1" as="geometry"/>
                </mxCell>
                <mxCell id="17" value="print ftart" style="shape=document;whiteSpace=wrap;html=1;boundedLbl=1;shadow=0;fontFamily=Comic Sans MS;fontSize=12;align=center;" vertex="1" parent="1">
                    <mxGeometry x="369.5" y="620" width="112" height="80" as="geometry"/>
                </mxCell>
                <mxCell id="18" value="return Rec(finish, start + 1);" style="whiteSpace=wrap;html=1;shadow=0;fontFamily=Comic Sans MS;" vertex="1" parent="1">
                    <mxGeometry x="335" y="780" width="180" height="40" as="geometry"/>
                </mxCell>
                <mxCell id="24" value="" style="edgeStyle=none;sketch=0;html=1;shadow=0;fontFamily=Comic Sans MS;fontSize=12;align=center;" edge="1" parent="1" source="21" target="23">
                    <mxGeometry relative="1" as="geometry"/>
                </mxCell>
                <mxCell id="25" value="yes" style="edgeLabel;html=1;align=center;verticalAlign=middle;resizable=0;points=[];fontSize=12;fontFamily=Comic Sans MS;" vertex="1" connectable="0" parent="24">
                    <mxGeometry x="-0.3823" y="3" relative="1" as="geometry">
                        <mxPoint as="offset"/>
                    </mxGeometry>
                </mxCell>
                <mxCell id="30" value="" style="edgeStyle=none;sketch=0;html=1;shadow=0;fontFamily=Comic Sans MS;fontSize=12;align=center;" edge="1" parent="1" source="21" target="29">
                    <mxGeometry relative="1" as="geometry">
                        <Array as="points">
                            <mxPoint x="600" y="955"/>
                            <mxPoint x="600" y="1280"/>
                        </Array>
                    </mxGeometry>
                </mxCell>
                <mxCell id="31" value="no" style="edgeLabel;html=1;align=center;verticalAlign=middle;resizable=0;points=[];fontSize=12;fontFamily=Comic Sans MS;" vertex="1" connectable="0" parent="30">
                    <mxGeometry x="-0.1085" y="-4" relative="1" as="geometry">
                        <mxPoint y="1" as="offset"/>
                    </mxGeometry>
                </mxCell>
                <mxCell id="21" value="if(stast == finish + 1)" style="rhombus;whiteSpace=wrap;html=1;rounded=1;shadow=0;fontFamily=Comic Sans MS;fontStyle=0;labelBackgroundColor=#ffffff;endArrow=classic;sketch=0;" vertex="1" parent="1">
                    <mxGeometry x="359.5" y="900" width="132" height="110" as="geometry"/>
                </mxCell>
                <mxCell id="23" value="return finish;" style="whiteSpace=wrap;html=1;rounded=1;shadow=0;fontFamily=Comic Sans MS;fontStyle=0;labelBackgroundColor=#ffffff;endArrow=classic;sketch=0;" vertex="1" parent="1">
                    <mxGeometry x="365.5" y="1125" width="114.5" height="45" as="geometry"/>
                </mxCell>
                <mxCell id="33" value="" style="edgeStyle=none;sketch=0;html=1;shadow=0;fontFamily=Comic Sans MS;fontSize=12;align=center;" edge="1" parent="1" source="29" target="32">
                    <mxGeometry relative="1" as="geometry"/>
                </mxCell>
                <mxCell id="29" value="print finish;" style="shape=document;whiteSpace=wrap;html=1;boundedLbl=1;rounded=1;shadow=0;fontFamily=Comic Sans MS;fontStyle=0;labelBackgroundColor=#ffffff;endArrow=classic;sketch=0;" vertex="1" parent="1">
                    <mxGeometry x="365" y="1240" width="120" height="80" as="geometry"/>
                </mxCell>
                <mxCell id="32" value="return Rec(start, finish - 1);" style="whiteSpace=wrap;html=1;rounded=1;shadow=0;fontFamily=Comic Sans MS;fontStyle=0;labelBackgroundColor=#ffffff;endArrow=classic;sketch=0;" vertex="1" parent="1">
                    <mxGeometry x="338" y="1410" width="175" height="50" as="geometry"/>
                </mxCell>
            </root>
        </mxGraphModel>
    </diagram>
</mxfile>